<?xml version="1.0" encoding="utf-8"?>
<!-- Generator: Adobe Illustrator 21.1.0, SVG Export Plug-In . SVG Version: 6.00 Build 0)  -->
<svg version="1.1" id="Layer_1" xmlns="http://www.w3.org/2000/svg" xmlns:xlink="http://www.w3.org/1999/xlink" x="0px" y="0px"
	 viewBox="0 0 245.6 96" style="enable-background:new 0 0 245.6 96;" xml:space="preserve">
<style type="text/css">
	.st0{fill:#26C6DA;}
	.st1{fill:#D84315;}
</style>
<g>
	<g>
		<path class="st0" d="M25.6,15.6c-0.1-0.5,0.1-0.7,0.7-0.7c5,0.2,11.3-1.5,14.7-1.5c2.6,0,4.1,1.2,4.9,3.1c0.2,0.5,0.1,0.9-0.7,0.9
			c-4.5-0.1-8.7,1.1-12.4,1.7c-2.1,3.4-4.9,8.3-7.9,13.7c1.6-0.3,2.9-0.4,4-0.5c3-0.2,4.5,1.1,5,2.9c0.2,0.5,0.1,0.9-0.7,0.9
			c-3-0.1-7.6,0.8-11,1.7c-2.3,4.4-4.5,8.9-6.2,13c-0.2,0.6-0.6,0.6-1,0.2c-1.1-1-1.7-2.9-0.5-6.6c1.8-5.3,8.1-17,13.4-25.6
			C26.5,18,25.9,16.8,25.6,15.6z"/>
		<path class="st0" d="M55.5,27c0.5-0.8,1-0.9,1.4-0.4c0.9,1.1,1.4,3.7-0.1,6.7c-1.3,2.7-4.3,7.2-5.8,10.4c-1.5,3.4-1.6,5.9,0.5,5.8
			c2.5-0.1,5.8-4.2,7.9-8.3c0.3-0.5,0.7-0.6,1-0.1s0.2,2-0.5,3.7c-1.6,3.3-5.3,6.6-8.6,6.4c-3.2-0.2-4.9-2.1-4.9-4.9
			c-1.9,2.5-4.6,4.7-7.5,4.7c-5.6,0-6.7-7.6-1.7-14.9c4.9-7.1,9.6-9.8,12.6-9.8c2.6,0,3.8,2,3.7,4.3C54.1,29.2,54.8,28,55.5,27z
			 M50.7,29.5c-1.9-0.2-6.3,3.7-9.6,9.1c-3.2,5.2-4,10.4-1.6,10.5c2.5,0.1,5.6-3.8,8.6-9.1C51.9,33.4,52.4,29.7,50.7,29.5z"/>
		<path class="st0" d="M77.1,26.6c2,0.1,3.1,3.2,2.3,5.9c2.9-2.8,6.9-5.6,8.9-5.6c2.2,0.1,2.6,3.6,1.4,6.6c-1.1,2.7-4,6.7-5.5,9.7
			c-1.7,3.4-0.8,6.2,1.3,6.1c2.5-0.1,5.2-4,7.5-8.2c0.3-0.5,0.8-0.5,1.1-0.1s0.1,2.4-0.5,3.8c-1.7,3.4-5.5,6.4-9,6.4
			c-5.2,0-7.1-4.1-4.9-9.1c2.2-5,7.6-11.7,6.7-12c-0.5-0.2-2.5,0.5-6.4,4.4c-5,5-7.9,10.7-10.4,16.4c-0.4,0.7-0.8,0.9-1.4,0.3
			c-1-0.9-1.9-3.2-0.1-7.6c2-5,8.5-13.3,7.3-13.7c-0.7-0.3-3.7,1.3-7.5,5.5c-3.5,3.8-6.4,9.4-8.8,15.1c-0.2,0.5-0.6,0.8-1.1,0.3
			c-1.3-1.1-1.6-3.1-0.6-6.2c1.3-3.8,5.6-12.2,9.4-17.9c0.4-0.7,0.9-0.6,1.3,0c1,1.7,0.8,4-0.1,6.4C70.4,30.1,74.9,26.5,77.1,26.6z"
			/>
		<path class="st0" d="M92.3,42.3c1.5-4.4,5.5-11.5,7.7-14.6c0.5-0.7,1-0.9,1.4-0.4c0.9,1,1.4,3.5-0.1,6.5c-1.3,2.6-3.8,6.7-5,9.7
			c-1.4,3.5-1.3,5.8,0.6,5.7c2.7-0.1,6-4.1,7.8-8.2c0.3-0.5,0.7-0.5,1,0c0.5,1,0.3,2.2-0.4,3.7c-1.8,3.7-5.6,6.2-8.9,6.2
			C91.8,51.1,90.6,47.2,92.3,42.3z M105.7,26.7c-0.8,0.8-2.5,0.7-3.4-0.9c-1-1.6-0.7-3.4,0.3-4.4c1-1,2.7-0.3,3.5,1.3
			C106.9,24.2,106.5,25.8,105.7,26.7z"/>
		<path class="st0" d="M109.6,49.3c2.9,0.2,7.1-4.1,9.4-8.7c0.4-0.8,1.1-0.8,1.3,0c0.3,1,0.1,2.3-0.6,3.7c-0.8,1.8-5.2,6.8-10,6.7
			c-4.1-0.1-6.4-3-5-9.5c2.2-10.4,9.1-21.3,15.2-27.7c0.9-1,1.7-1.1,2.6-0.3c1.7,1.6,2.1,3.8,1.4,6.6c-1.9,7.4-8.6,14.6-13.9,18.1
			C107.5,44.1,106.9,49,109.6,49.3z M121.8,18.9c-0.8-0.5-5.2,6.2-9.4,13.9c-0.5,1-1,1.9-1.4,2.9C119.2,28.9,122.6,19.3,121.8,18.9z
			"/>
		<path class="st0" d="M129.5,52.4c-3.4,8-7.6,17.7-12.6,19.6c-1.1,0.4-2.3,0.4-3.4-1.3c-1.2-1.8-2.4-3.9-1.2-7.4
			c1.8-5.4,6.9-9,12.8-11.3c0.6-1.4,1.2-2.9,1.9-4.3c-1.9,1.9-4.1,3.5-6.5,3.3c-4.3-0.4-4.4-4.7-3.1-8.7c1.3-3.8,4.3-9.8,8.2-15.2
			c0.5-0.7,1.1-0.6,1.5,0c1.4,1.9,1.1,4.4-1.1,8c-2.2,3.5-3.5,5.9-4.6,8.8c-1.2,2.9-1.1,5,0.3,5.2c2.3,0.2,5.3-3.7,8.4-8.9
			c2.6-4.4,5.2-9.8,7.3-12.9c0.5-0.8,1-0.9,1.5-0.4c0.8,1.1,1.3,3.7-0.2,6.7c-1.8,3.5-5.5,10.7-8,16.5c4.7-2.5,8.2-5.9,10.6-9.2
			c0.3-0.4,0.8-0.5,1,0.1c0.1,0.5-0.1,1.9-1.1,3.5C138.7,48.1,134.5,50.4,129.5,52.4z M114.7,68.7c0.8,1.1,5.7-5.4,9.4-14.2
			C116.3,59,113.6,67.2,114.7,68.7z"/>
		<path class="st0" d="M164.1,15.6c-0.1-0.5,0.1-0.8,0.7-0.7c5,0.3,11.6-1.4,14.9-1.5c2.5-0.1,3.8,1,4.6,2.9
			c0.2,0.5,0.1,0.9-0.7,0.8c-4.3-0.1-8.5,1-12.2,1.6c-2.4,3.6-5.3,8.8-8.3,14.2c1.6-0.3,3.2-0.4,4.3-0.5c3-0.1,4.3,0.8,4.9,2.7
			c0.2,0.5,0.2,0.9-0.6,0.9c-3.2,0-7.7,0.8-11.1,1.7c-1.7,3.4-3.4,6.7-4.6,9.5c2.9-0.9,6.8-1.7,9.3-1.9c2.9-0.1,4.4,0.8,5.1,2.6
			c0.2,0.5,0.1,0.9-0.6,0.9c-3.4-0.1-9.9,1.5-13.3,2.4c-1.1,0.3-1.8,0.3-2.5-0.6c-0.5-0.5-0.8-1.4-1.3-2.2c-0.5-1-0.5-1.8,0.1-3.4
			c2.8-7.4,8.8-18.5,13.8-26.3C165.1,18.1,164.5,16.9,164.1,15.6z"/>
		<path class="st0" d="M195.4,27c0.5-0.8,1-0.9,1.4-0.4c0.9,1.1,1.4,3.7-0.1,6.7c-1.3,2.7-4.3,7.2-5.8,10.4
			c-1.5,3.4-1.6,5.9,0.5,5.8c2.5-0.1,5.8-4.2,7.9-8.3c0.3-0.5,0.7-0.6,1-0.1s0.2,2-0.5,3.7c-1.6,3.3-5.3,6.6-8.6,6.4
			c-3.2-0.2-4.9-2.1-4.9-4.9c-1.9,2.5-4.6,4.7-7.5,4.7c-5.6,0-6.7-7.6-1.7-14.9c4.9-7.1,9.6-9.8,12.6-9.8c2.6,0,3.8,2,3.7,4.3
			C194.1,29.2,194.8,28,195.4,27z M190.6,29.5c-1.9-0.2-6.3,3.7-9.6,9.1c-3.2,5.2-4,10.4-1.6,10.5c2.5,0.1,5.6-3.8,8.6-9.1
			C191.8,33.4,192.4,29.7,190.6,29.5z"/>
		<path class="st0" d="M201.9,25.3c-0.6-0.8-0.2-1.3,0.7-1.2c1.7,0.1,3.4-0.1,5-0.2c1.9-3.3,3.5-6.1,4.6-7.4c0.5-0.8,1.1-0.7,1.4,0
			c0.7,1.7,0.7,3.7-0.8,6.8c2.3-0.1,3.2,1,3.7,1.8c0.4,0.7,0.2,1.1-0.7,1.1c-1.3-0.2-3.2,0-4.7,0.2c-2.3,4-5.8,9.8-8,14.9
			c-2,4.4-1.3,8.1,1.2,8.2c2.7,0.1,6.1-4.1,8.3-8.6c0.4-0.7,1-0.8,1.3,0c0.3,1,0,2-0.6,3.4c-0.8,1.7-4.7,7-9.5,6.8
			c-4-0.1-7.1-4.6-4.3-11.5c1.3-3,3.8-8,6.4-12.8C203.7,26.8,202.3,25.9,201.9,25.3z"/>
		<path class="st0" d="M220.3,30c0.3-2.3,0.9-3.5,2.2-4.6c1.3-1.2,2.7-1.4,3.2-0.9c0.6,0.6,0.3,1.3-0.5,2.6
			c-0.2,0.4-0.4,0.7-0.7,1.1c-0.4,5.5,0.7,10.2,0.5,14.3c-0.1,2.3-0.5,4.9-2.7,6.3c4-1.5,6.5-5.1,8-8.3c0.3-0.7,0.9-0.5,1.1,0
			c0.2,0.5,0.2,2.1-0.8,4c-2.3,4.1-6.4,6.4-10.6,6.6c-3.5,0.1-6.8-0.8-8.9-4.5c-1.4-2.7-1.3-6.7,0.8-8.3c0.7-0.6,1.2-0.4,1.3,0.6
			c0.1,0.5,0.1,1,0.1,1.4C215.9,37,218.6,33.1,220.3,30z M214,43.6c0.9,3.5,2.6,5.9,4.6,5.3c2.8-0.8,1.9-10.3,1.6-15.1
			C218.5,37,216.2,40.3,214,43.6z"/>
	</g>
	<g>
		<path class="st1" d="M19.3,78.2h-3.6l-0.8,2.2h-1l3.1-7.9h1.1l3.1,7.9h-1L19.3,78.2z M18.9,77.3l-1.1-2.8l-0.4-1.1h0l-0.3,1.1
			L16,77.3H18.9z"/>
		<path class="st1" d="M31.2,75.9l-0.9,0.4c-0.3-0.8-0.8-1.2-1.6-1.2c-1.2,0-1.9,0.9-1.9,2.3c0,1.4,0.7,2.3,1.9,2.3
			c0.9,0,1.5-0.4,1.7-1.2l0.9,0.3c-0.4,1.1-1.3,1.8-2.5,1.8c-1.8,0-2.9-1.2-2.9-3.1c0-1.9,1.1-3.1,2.9-3.1
			C29.9,74.3,30.7,74.9,31.2,75.9z"/>
		<path class="st1" d="M38.4,77.4c0,1.9-1.1,3.1-2.9,3.1s-2.9-1.2-2.9-3.1c0-1.9,1.1-3.1,2.9-3.1S38.4,75.5,38.4,77.4z M33.5,77.4
			c0,1.4,0.7,2.3,1.9,2.3s1.9-0.9,1.9-2.3c0-1.4-0.7-2.3-1.9-2.3S33.5,76,33.5,77.4z"/>
		<path class="st1" d="M41.1,78.8c0,0.6,0.2,0.8,0.6,0.8c0.3,0,0.5,0,0.9-0.2l-0.2,0.9c-0.3,0.1-0.6,0.2-0.9,0.2
			c-1,0-1.4-0.5-1.4-1.6v-7.3h1V78.8z"/>
		<path class="st1" d="M44.8,78.8c0,0.6,0.2,0.8,0.6,0.8c0.3,0,0.5,0,0.9-0.2l-0.2,0.9c-0.3,0.1-0.6,0.2-0.9,0.2
			c-1,0-1.4-0.5-1.4-1.6v-7.3h1V78.8z"/>
		<path class="st1" d="M52.7,77.8h-4.5c0.1,1.2,0.9,1.9,2,1.9c0.9,0,1.5-0.3,1.7-0.9l0.8,0.4c-0.5,0.8-1.2,1.3-2.5,1.3
			c-1.8,0-2.9-1.2-2.9-3.1c0-1.9,1-3.1,2.8-3.1c1.7,0,2.7,1.3,2.7,2.8C52.7,77.4,52.7,77.6,52.7,77.8z M48.2,76.9h3.6
			c-0.1-1.1-0.7-1.8-1.8-1.8C49,75.1,48.3,75.8,48.2,76.9z"/>
		<path class="st1" d="M59.6,75.9l-0.9,0.4c-0.3-0.8-0.8-1.2-1.6-1.2c-1.2,0-1.9,0.9-1.9,2.3c0,1.4,0.7,2.3,1.9,2.3
			c0.9,0,1.5-0.4,1.7-1.2l0.9,0.3c-0.4,1.1-1.3,1.8-2.5,1.8c-1.8,0-2.9-1.2-2.9-3.1c0-1.9,1.1-3.1,2.9-3.1
			C58.3,74.3,59.1,74.9,59.6,75.9z"/>
		<path class="st1" d="M65,80c-0.4,0.3-0.9,0.5-1.5,0.5c-0.9,0-1.7-0.4-1.7-1.6v-3.7h-1.2v-0.8h1.2V73l1-0.3v1.7h2.2v0.8h-2.2v3.5
			c0,0.6,0.4,0.9,0.9,0.9c0.4,0,0.7-0.2,1-0.4L65,80z"/>
		<path class="st1" d="M66.1,72.5c0-0.4,0.3-0.7,0.7-0.7s0.7,0.3,0.7,0.7c0,0.4-0.3,0.7-0.7,0.7S66.1,73,66.1,72.5z M67.3,80.4h-1
			v-6h1V80.4z"/>
		<path class="st1" d="M75,77.4c0,1.9-1.1,3.1-2.9,3.1s-2.9-1.2-2.9-3.1c0-1.9,1.1-3.1,2.9-3.1S75,75.5,75,77.4z M70.1,77.4
			c0,1.4,0.7,2.3,1.9,2.3s1.9-0.9,1.9-2.3c0-1.4-0.7-2.3-1.9-2.3S70.1,76,70.1,77.4z"/>
		<path class="st1" d="M82.1,76.6v3.8h-1v-3.5c0-1.3-0.6-1.8-1.5-1.8c-0.9,0-1.9,0.6-1.9,2.1v3.2h-1v-6h0.8l0.1,0.9
			c0.4-0.8,1.2-1.1,2-1.1C81,74.3,82.1,75,82.1,76.6z"/>
		<path class="st1" d="M93.8,77.4c0,1.9-1.1,3.1-2.9,3.1S88,79.4,88,77.4c0-1.9,1.1-3.1,2.9-3.1S93.8,75.5,93.8,77.4z M88.9,77.4
			c0,1.4,0.7,2.3,1.9,2.3s1.9-0.9,1.9-2.3c0-1.4-0.7-2.3-1.9-2.3S88.9,76,88.9,77.4z"/>
		<path class="st1" d="M97,74.4h2v0.8h-2v5.2h-1v-5.2h-1.2v-0.8H96v-1c0-1.1,0.6-1.8,2-1.8c0.4,0,0.8,0.1,1,0.3l-0.3,0.8
			c-0.2-0.1-0.4-0.2-0.7-0.2c-0.7,0-1.1,0.3-1.1,1V74.4z"/>
		<path class="st1" d="M105.8,81.4c-0.5,1.2-1,1.6-1.9,1.6c-0.6,0-1-0.1-1.3-0.5l0.3-0.8c0.3,0.4,0.6,0.5,1,0.5c0.4,0,0.8-0.2,1.1-1
			l0.3-0.8l-2.5-6h1.1l1.5,3.9l0.4,1.1l0.4-1.2l1.4-3.8h1L105.8,81.4z"/>
		<path class="st1" d="M115.4,77.4c0,1.9-1.1,3.1-2.9,3.1s-2.9-1.2-2.9-3.1c0-1.9,1.1-3.1,2.9-3.1S115.4,75.5,115.4,77.4z
			 M110.6,77.4c0,1.4,0.7,2.3,1.9,2.3s1.9-0.9,1.9-2.3c0-1.4-0.7-2.3-1.9-2.3S110.6,76,110.6,77.4z"/>
		<path class="st1" d="M122.5,74.4v6h-0.8l-0.1-0.9c-0.4,0.7-1.2,1-2.1,1c-1.2,0-2.2-0.6-2.2-2.2v-3.9h1v3.7c0,1.2,0.6,1.6,1.4,1.6
			c1,0,1.9-0.6,1.9-2v-3.3H122.5z"/>
		<path class="st1" d="M128.2,74.4l-0.2,0.9c-0.2-0.1-0.4-0.2-0.8-0.2c-0.7,0-1.6,0.6-1.6,2v3.2h-1v-6h0.8l0.1,1
			c0.3-0.7,1-1.1,1.9-1.1C127.7,74.3,128,74.3,128.2,74.4z"/>
		<path class="st1" d="M134.6,74.4h2v0.8h-2v5.2h-1v-5.2h-1.2v-0.8h1.2v-1c0-1.1,0.6-1.8,2-1.8c0.4,0,0.8,0.1,1,0.3l-0.3,0.8
			c-0.2-0.1-0.4-0.2-0.7-0.2c-0.7,0-1.1,0.3-1.1,1V74.4z"/>
		<path class="st1" d="M142.9,79.7l-0.1,0.8c-0.2,0.1-0.4,0.1-0.7,0.1c-0.6,0-1-0.2-1.1-0.9c-0.4,0.6-1.2,0.9-1.9,0.9
			c-1.1,0-2-0.5-2-1.6c0-0.9,0.8-1.6,2.3-1.9l1.6-0.3v-0.3c0-0.8-0.5-1.3-1.4-1.3c-0.8,0-1.4,0.4-1.7,1.1l-0.7-0.5
			c0.3-0.9,1.3-1.5,2.4-1.5c1.4,0,2.4,0.6,2.4,2v3c0,0.3,0.1,0.4,0.5,0.4C142.6,79.7,142.8,79.7,142.9,79.7z M141,78.4v-0.8
			l-1.3,0.3c-1.1,0.2-1.6,0.5-1.6,1.1c0,0.5,0.4,0.8,1.1,0.8C140.2,79.7,141,79.2,141,78.4z"/>
		<path class="st1" d="M153.6,76.6v3.8h-1v-3.7c0-1.1-0.6-1.5-1.4-1.5c-0.9,0-1.8,0.7-1.8,2v3.3h-1v-3.7c0-1.1-0.6-1.5-1.4-1.5
			c-0.8,0-1.8,0.6-1.8,2.1v3.2h-1v-6h0.8l0.1,0.9c0.4-0.7,1.2-1.1,1.9-1.1c0.8,0,1.7,0.4,2.1,1.2c0.4-0.8,1.3-1.2,2.1-1.2
			C152.5,74.3,153.6,75,153.6,76.6z"/>
		<path class="st1" d="M155.5,72.5c0-0.4,0.3-0.7,0.7-0.7s0.7,0.3,0.7,0.7c0,0.4-0.3,0.7-0.7,0.7S155.5,73,155.5,72.5z M156.7,80.4
			h-1v-6h1V80.4z"/>
		<path class="st1" d="M159.9,78.8c0,0.6,0.2,0.8,0.6,0.8c0.3,0,0.5,0,0.9-0.2l-0.2,0.9c-0.3,0.1-0.6,0.2-0.9,0.2
			c-1,0-1.4-0.5-1.4-1.6v-7.3h1V78.8z"/>
		<path class="st1" d="M164.6,81.4c-0.5,1.2-1,1.6-1.9,1.6c-0.6,0-1-0.1-1.3-0.5l0.3-0.8c0.3,0.4,0.6,0.5,1,0.5c0.4,0,0.8-0.2,1.1-1
			l0.3-0.8l-2.5-6h1.1l1.5,3.9l0.4,1.1l0.4-1.2l1.4-3.8h1L164.6,81.4z"/>
		<path class="st1" d="M170.5,73.2c0,0.8-0.4,1.6-1.3,2l-0.5-0.5c0.6-0.2,1.1-0.7,1.2-1.2l0,0c-0.1,0-0.1,0.1-0.3,0.1
			c-0.3,0-0.7-0.2-0.7-0.8c0-0.4,0.3-0.8,0.8-0.8C170.1,72,170.5,72.5,170.5,73.2z"/>
		<path class="st1" d="M171.1,79.2l0.8-0.5c0.3,0.7,1,1.1,1.9,1.1c1,0,1.5-0.4,1.5-0.9c0-0.4-0.4-0.7-1.6-0.9
			c-1.7-0.3-2.3-0.8-2.3-1.8c0-1,0.9-1.8,2.4-1.8c1.3,0,2,0.5,2.4,1.4l-0.8,0.5c-0.3-0.8-0.8-1.1-1.6-1.1c-0.8,0-1.4,0.4-1.4,0.9
			c0,0.5,0.4,0.8,1.6,1c1.7,0.3,2.3,0.8,2.3,1.8c0,1-1,1.8-2.5,1.8C172.6,80.5,171.5,80.1,171.1,79.2z"/>
		<path class="st1" d="M185.5,74.4l-0.2,0.9c-0.2-0.1-0.4-0.2-0.8-0.2c-0.7,0-1.6,0.6-1.6,2v3.2h-1v-6h0.8l0.1,1
			c0.3-0.7,1-1.1,1.9-1.1C185.1,74.3,185.3,74.3,185.5,74.4z"/>
		<path class="st1" d="M191.8,77.8h-4.5c0.1,1.2,0.9,1.9,2,1.9c0.9,0,1.5-0.3,1.7-0.9l0.8,0.4c-0.5,0.8-1.2,1.3-2.5,1.3
			c-1.8,0-2.9-1.2-2.9-3.1c0-1.9,1-3.1,2.8-3.1c1.7,0,2.7,1.3,2.7,2.8C191.9,77.4,191.9,77.6,191.8,77.8z M187.3,76.9h3.6
			c-0.1-1.1-0.7-1.8-1.8-1.8C188.1,75.1,187.5,75.8,187.3,76.9z"/>
		<path class="st1" d="M198.7,75.9l-0.9,0.4c-0.3-0.8-0.8-1.2-1.6-1.2c-1.2,0-1.9,0.9-1.9,2.3c0,1.4,0.7,2.3,1.9,2.3
			c0.9,0,1.5-0.4,1.7-1.2l0.9,0.3c-0.4,1.1-1.3,1.8-2.5,1.8c-1.8,0-2.9-1.2-2.9-3.1c0-1.9,1.1-3.1,2.9-3.1
			C197.5,74.3,198.3,74.9,198.7,75.9z"/>
		<path class="st1" d="M200.2,72.5c0-0.4,0.3-0.7,0.7-0.7c0.4,0,0.7,0.3,0.7,0.7c0,0.4-0.3,0.7-0.7,0.7
			C200.5,73.3,200.2,73,200.2,72.5z M201.4,80.4h-1v-6h1V80.4z"/>
		<path class="st1" d="M209.3,77.4c0,2-1.1,3.1-2.7,3.1c-0.9,0-1.6-0.4-2-1.1v3.5h-1v-8.5h0.8l0.1,1c0.3-0.7,1.1-1.2,2.1-1.2
			C208.3,74.3,209.3,75.5,209.3,77.4z M208.4,77.4c0-1.4-0.7-2.3-1.9-2.3c-1.1,0-1.9,0.9-1.9,2.2v0.1c0,1.4,0.7,2.2,1.9,2.2
			C207.7,79.7,208.4,78.8,208.4,77.4z"/>
		<path class="st1" d="M216.3,77.8h-4.5c0.1,1.2,0.9,1.9,2,1.9c0.9,0,1.5-0.3,1.7-0.9l0.8,0.4c-0.5,0.8-1.2,1.3-2.5,1.3
			c-1.8,0-2.9-1.2-2.9-3.1c0-1.9,1-3.1,2.8-3.1c1.7,0,2.7,1.3,2.7,2.8C216.4,77.4,216.3,77.6,216.3,77.8z M211.8,76.9h3.6
			c-0.1-1.1-0.7-1.8-1.8-1.8C212.6,75.1,212,75.8,211.8,76.9z"/>
		<path class="st1" d="M217.7,79.2l0.8-0.5c0.3,0.7,1,1.1,1.9,1.1c1,0,1.5-0.4,1.5-0.9c0-0.4-0.4-0.7-1.6-0.9
			c-1.7-0.3-2.3-0.8-2.3-1.8c0-1,0.9-1.8,2.4-1.8c1.3,0,2,0.5,2.4,1.4l-0.8,0.5c-0.3-0.8-0.8-1.1-1.6-1.1c-0.8,0-1.4,0.4-1.4,0.9
			c0,0.5,0.4,0.8,1.6,1c1.7,0.3,2.3,0.8,2.3,1.8c0,1-1,1.8-2.5,1.8C219.1,80.5,218.1,80.1,217.7,79.2z"/>
	</g>
</g>
</svg>
