<?xml version="1.0" encoding="utf-8"?>
<!-- Generator: Adobe Illustrator 21.1.0, SVG Export Plug-In . SVG Version: 6.00 Build 0)  -->
<svg version="1.1" id="Layer_1" xmlns="http://www.w3.org/2000/svg" xmlns:xlink="http://www.w3.org/1999/xlink" x="0px" y="0px"
	 viewBox="0 0 250 250" style="enable-background:new 0 0 250 250;" xml:space="preserve">
<style type="text/css">
	.st0{fill:#26C6DA;stroke:#FFFFFF;stroke-width:4;stroke-miterlimit:10;}
	.st1{fill:#DCE0DD;}
</style>
<g>
	<path class="st0" d="M95.7,57.6c16.7,25.6-49.7,63.6-49.7,95.3c0,36.4,55.2,43.9,79.1,43.9s79.1-7.4,79.1-43.9
		c0-32-66.4-74.7-49.6-95.2l-20.3,15.1l-18.2,0L95.7,57.6z"/>
	<path class="st0" d="M117.3,52.9C122.5,73.1,72,125,72,151.7c0,30.7,32.9,45.4,53,45.4s53-14.8,53-45.4c0-26.6-50.5-73.5-45.2-98.7
		C129.6,52.8,125,63,125,63S120.5,52.7,117.3,52.9z"/>
	<path class="st0" d="M93.3,151.9c0,24.8,31.7,44.8,31.7,44.8s31.7-20.1,31.7-44.8S125,85.8,125,85.8S93.3,127.2,93.3,151.9z"/>
</g>
<path class="st1" d="M-4.7,119.2"/>
</svg>
