<?xml version="1.0" encoding="utf-8"?>
<!-- Generator: Adobe Illustrator 21.1.0, SVG Export Plug-In . SVG Version: 6.00 Build 0)  -->
<svg version="1.1" id="Layer_1" xmlns="http://www.w3.org/2000/svg" xmlns:xlink="http://www.w3.org/1999/xlink" x="0px" y="0px"
	 viewBox="0 0 250 250" style="enable-background:new 0 0 250 250;" xml:space="preserve">
<style type="text/css">
	.st0{fill:#26C6DA;stroke:#FFFFFF;stroke-width:4;stroke-miterlimit:10;}
	.st1{fill:#DCE0DD;}
</style>
<g>
	<path class="st0" d="M79.3,20.1C105.4,60,2,119.1,2,168.4c0,56.7,85.9,68.3,123,68.3s123-11.6,123-68.3
		c0-49.9-103.4-116.3-77.2-148.2l-31.6,23.5l-28.3-0.1L79.3,20.1z"/>
	<path class="st0" d="M113,12.8c8.1,31.5-70.5,112.2-70.5,153.7c0,47.7,51.2,70.7,82.5,70.7s82.5-23,82.5-70.7
		c0-41.4-78.5-114.4-70.3-153.6c-4.9-0.2-12.1,15.7-12.1,15.7S117.9,12.6,113,12.8z"/>
	<path class="st0" d="M75.6,166.9c0,38.5,49.4,69.8,49.4,69.8s49.4-31.2,49.4-69.8S125,63.9,125,63.9S75.6,128.4,75.6,166.9z"/>
</g>
<path class="st1" d="M-4.7,119.2"/>
</svg>
