<?xml version="1.0" standalone="no"?>
<!DOCTYPE svg PUBLIC "-//W3C//DTD SVG 20010904//EN"
 "http://www.w3.org/TR/2001/REC-SVG-20010904/DTD/svg10.dtd">
<svg version="1.0" xmlns="http://www.w3.org/2000/svg"
 width="640.000000pt" height="640.000000pt" viewBox="0 0 640.000000 640.000000"
 preserveAspectRatio="xMidYMid meet">
<metadata>
Created by potrace 1.11, written by Peter Selinger 2001-2013
</metadata>
<g transform="translate(0.000000,640.000000) scale(0.100000,-0.100000)"
fill="#000000" stroke="none">
<path d="M3702 6205 c-333 -259 -848 -756 -1131 -1092 -385 -456 -619 -806
-967 -1443 -354 -648 -462 -1352 -307 -2005 117 -495 404 -973 728 -1213 160
-118 566 -276 785 -306 l45 -6 -50 19 c-270 100 -453 304 -560 624 -178 535
-94 1277 216 1902 33 66 75 144 93 174 l34 54 6 -79 c15 -182 72 -351 149
-439 78 -90 214 -128 325 -91 57 19 136 95 172 166 109 214 170 597 170 1068
0 125 4 202 9 196 28 -29 447 -1070 526 -1308 83 -250 148 -584 175 -896 13
-160 13 -498 0 -626 -29 -270 -94 -481 -184 -594 -19 -25 -33 -46 -31 -48 2
-2 37 16 79 40 550 313 964 933 1119 1674 48 228 61 360 61 639 0 404 -46 693
-175 1092 -67 208 -200 508 -303 687 l-34 60 -7 -90 c-18 -244 -53 -395 -101
-433 -31 -25 -57 -18 -101 28 -219 225 -491 1189 -598 2126 -9 77 -19 155 -23
174 l-7 33 -113 -87z"/>
</g>
</svg>
