<?xml version="1.0" encoding="utf-8"?>
<!-- Generator: Adobe Illustrator 21.1.0, SVG Export Plug-In . SVG Version: 6.00 Build 0)  -->
<svg version="1.1" id="Layer_1" xmlns="http://www.w3.org/2000/svg" xmlns:xlink="http://www.w3.org/1999/xlink" x="0px" y="0px"
	 viewBox="0 0 78.7 80" style="enable-background:new 0 0 78.7 80;" xml:space="preserve">
<style type="text/css">
	.st0{opacity:0.1;}
	.st1{fill:#EF6C00;}
	.st2{fill:#FFFFFF;}
</style>
<g>
	<g>
		<g class="st0">
			<path d="M56.5,23.3c15.2,26.4,0.9,52.2-15,54.2c-7.1,0.9-13.3-1.6-16.5-3.3c-6.3-3.2-18.4-20.9-5.8-42.5c3.5-5.9,4.9-9.3,12.5-18
				C38.8,5.6,46.1,0.3,46.1,0.3s1.5,16.5,5.9,26.1C56.1,35.3,56.3,25.6,56.5,23.3z"/>
		</g>
		<g>
			<path class="st1" d="M57.5,24.3c15.2,26.4,0.9,52.2-15,54.2c-7.1,0.9-13.3-1.6-16.5-3.3c-6.3-3.2-18.4-20.9-5.8-42.5
				c3.5-5.9,4.9-9.3,12.5-18C39.8,6.6,47.1,1.3,47.1,1.3s1.5,16.5,5.9,26.1C57.1,36.3,57.3,26.6,57.5,24.3z"/>
		</g>
	</g>
	<path class="st2" d="M31.8,43.4c-8.3,13.1-7.7,33.5,4.7,35.1c4.6,0.6,8.6-0.4,10.6-1.2c4.1-1.7,5.2-13.5,2.3-25.2
		c-0.8-3.2-2.6-7.4-3.6-9.9C44,37.5,42,33,42,33s0.7,17.3-4.6,18.3C32.1,52.3,31.6,44.7,31.8,43.4z"/>
</g>
</svg>
