<?xml version="1.0" encoding="utf-8"?>
<!-- Generator: Adobe Illustrator 21.1.0, SVG Export Plug-In . SVG Version: 6.00 Build 0)  -->
<svg version="1.1" id="Layer_1" xmlns="http://www.w3.org/2000/svg" xmlns:xlink="http://www.w3.org/1999/xlink" x="0px" y="0px"
	 viewBox="0 0 152 152" style="enable-background:new 0 0 152 152;" xml:space="preserve">
<style type="text/css">
	.st0{opacity:0.1;}
	.st1{fill:#EF6C00;}
	.st2{fill:#FFFFFF;}
</style>
<g>
	<g>
		<g class="st0">
			<path d="M109.5,45.1c28.8,50.2,1.7,99.1-28.5,102.9c-13.4,1.7-25.2-3.1-31.3-6.2c-12-6.1-34.9-39.8-11-80.8
				c6.6-11.3,9.2-17.7,23.7-34.2C75.9,11.5,89.8,1.5,89.8,1.5s2.8,31.4,11.1,49.6C108.7,68,109.2,49.6,109.5,45.1z"/>
		</g>
		<g>
			<path class="st1" d="M110.5,46.1c28.8,50.2,1.7,99.1-28.5,102.9c-13.4,1.7-25.2-3.1-31.3-6.2c-12-6.1-34.9-39.8-11-80.8
				c6.6-11.3,9.2-17.7,23.7-34.2C76.9,12.5,90.8,2.5,90.8,2.5s2.8,31.4,11.1,49.6C109.7,69,110.2,50.6,110.5,46.1z"/>
		</g>
	</g>
	<path class="st2" d="M61.7,82.5c-15.8,24.9-14.6,63.6,8.9,66.6c8.7,1.1,16.3-0.8,20.1-2.4c7.8-3.3,9.9-25.6,4.4-47.8
		c-1.5-6.1-5-14-6.8-18.8C85,71.3,81,62.8,81,62.8s1.4,32.8-8.8,34.7C62.2,99.3,61.4,84.8,61.7,82.5z"/>
</g>
</svg>
