<?xml version="1.0" encoding="utf-8"?>
<!-- Generator: Adobe Illustrator 21.1.0, SVG Export Plug-In . SVG Version: 6.00 Build 0)  -->
<svg version="1.1" id="Layer_1" xmlns="http://www.w3.org/2000/svg" xmlns:xlink="http://www.w3.org/1999/xlink" x="0px" y="0px"
	 viewBox="0 0 314 509.7" style="enable-background:new 0 0 314 509.7;" xml:space="preserve">
<style type="text/css">
	.st0{fill:none;stroke:#1DBC6C;stroke-width:8;stroke-miterlimit:10;}
</style>
<g>
	<path class="st0" d="M-20.3,279"/>
	<g>
		<path class="st0" d="M215.8,336.7v-290c27.7,31.2,37.3,57.5,37.8,78.7c0.9,44.1-37.8,66.5-37.8,66.5"/>
		<path class="st0" d="M265.7,299l0.8-212.5c27.7,31.2,37.3,57.5,37.8,78.7c0.9,44.1-37.8,66.5-37.8,66.5"/>
		<path class="st0" d="M166.2,340.7V16c27.7,31.2,37.3,57.5,37.8,78.7c0.9,44.1-37.8,66.5-37.8,66.5"/>
		<path class="st0" d="M97,338.7v-292c-27.7,31.2-37.3,57.5-37.8,78.7C58.3,169.4,97,191.9,97,191.9"/>
		<path class="st0" d="M47.8,298.7L47,86.2c-27.7,31.2-37.3,57.5-37.8,78.7C8.3,209,47,231.5,47,231.5"/>
		<path class="st0" d="M146.6,340.7V16c-27.7,31.2-37.3,57.5-37.8,78.7c-0.9,44.1,37.8,66.5,37.8,66.5"/>
		<path class="st0" d="M265.7,460.4c0,54.5-218,54.5-218,0c0-37.4,0-204.1,0-157.7c0,61.4,218,43.4,218,0
			C265.7,263.2,265.7,426,265.7,460.4z"/>
	</g>
</g>
</svg>
